<svg width="1095" height="256" viewBox="0 0 1095 256" fill="none" xmlns="http://www.w3.org/2000/svg">
<g clip-path="url(#clip0)">
<path d="M262.96 127C262.96 110.36 266.4 95.56 273.28 82.6C280.32 69.48 289.92 59.24 302.08 51.88C314.4 44.52 328.16 40.84 343.36 40.84C362.56 40.84 378.72 45.32 391.84 54.28C404.96 63.24 414.56 75.8 420.64 91.96H408.16C403.2 79.32 395.2 69.32 384.16 61.96C373.12 54.44 359.52 50.68 343.36 50.68C330.4 50.68 318.64 53.8 308.08 60.04C297.52 66.12 289.2 75 283.12 86.68C277.04 98.2 274 111.64 274 127C274 142.2 277.04 155.56 283.12 167.08C289.2 178.6 297.52 187.48 308.08 193.72C318.64 199.8 330.4 202.84 343.36 202.84C359.52 202.84 373.12 199.16 384.16 191.8C395.2 184.28 403.2 174.2 408.16 161.56H420.64C414.56 177.72 404.96 190.28 391.84 199.24C378.72 208.2 362.56 212.68 343.36 212.68C328.16 212.68 314.4 209.08 302.08 201.88C289.92 194.52 280.32 184.36 273.28 171.4C266.4 158.28 262.96 143.48 262.96 127Z" fill="#FFFDFF"/>
<path d="M574.367 42.52V211H563.567V129.16H465.167V211H454.367V42.52H465.167V120.52H563.567V42.52H574.367Z" fill="#FFFDFF"/>
<path d="M688.862 212.92C673.342 212.92 659.342 209.32 646.862 202.12C634.382 194.76 624.622 184.52 617.582 171.4C610.542 158.28 607.022 143.48 607.022 127C607.022 110.36 610.542 95.56 617.582 82.6C624.622 69.48 634.382 59.32 646.862 52.12C659.342 44.76 673.342 41.08 688.862 41.08C704.382 41.08 718.382 44.76 730.862 52.12C743.342 59.32 753.102 69.48 760.142 82.6C767.182 95.56 770.702 110.36 770.702 127C770.702 143.48 767.182 158.28 760.142 171.4C753.102 184.52 743.342 194.76 730.862 202.12C718.382 209.32 704.382 212.92 688.862 212.92ZM688.862 203.08C702.142 203.08 714.142 200.04 724.862 193.96C735.582 187.72 743.982 178.84 750.062 167.32C756.302 155.8 759.422 142.36 759.422 127C759.422 111.64 756.302 98.2 750.062 86.68C743.982 75.16 735.582 66.28 724.862 60.04C714.142 53.8 702.142 50.68 688.862 50.68C675.582 50.68 663.582 53.8 652.862 60.04C642.142 66.28 633.662 75.16 627.422 86.68C621.182 98.2 618.062 111.64 618.062 127C618.062 142.36 621.182 155.8 627.422 167.32C633.662 178.84 642.142 187.72 652.862 193.96C663.582 200.04 675.582 203.08 688.862 203.08Z" fill="#FFFDFF"/>
<path d="M813.192 42.52V147.64C813.192 166.68 817.512 180.68 826.152 189.64C834.792 198.6 846.552 203.08 861.432 203.08C876.152 203.08 887.752 198.68 896.232 189.88C904.712 180.92 908.952 166.84 908.952 147.64V42.52H919.752V147.64C919.752 169.56 914.472 185.88 903.912 196.6C893.352 207.32 879.192 212.68 861.432 212.68C843.672 212.68 829.352 207.32 818.472 196.6C807.752 185.72 802.392 169.4 802.392 147.64V42.52H813.192Z" fill="#FFFDFF"/>
<path d="M1051.5 34.5V43.38C1048.88 48.7082 1046.59 50.0387 1042 51.4H1003.16V211H992.359V51.4H944.359V42.52H1042C1045.69 42.0275 1047.48 42.46 1051.5 34.5Z" fill="#FFFDFF"/>
<path fill-rule="evenodd" clip-rule="evenodd" d="M126.5 2.24707C76.2387 2.24707 35.5781 42.919 35.5781 93.1944C35.5781 112.118 41.2254 129.63 51.1082 144.035C67.4855 168.607 126.5 254.753 126.5 254.753C126.5 254.753 185.514 168.607 201.892 144.317C211.775 129.912 217.422 112.401 217.422 93.4768C217.422 43.2017 176.761 2.24707 126.5 2.24707ZM126.5 156.666C91.4909 156.666 63.0029 128.178 63.0029 93.1689C63.0029 58.1598 91.4909 29.6719 126.5 29.6719C161.509 29.6719 189.997 58.1598 189.997 93.1689C189.997 128.178 161.509 156.666 126.5 156.666ZM72.4222 93.0474C75.2075 96.1671 79.6987 96.1671 82.4362 93.0474C94.2096 79.7921 109.816 72.5566 126.432 72.5566C143.065 72.5566 158.761 79.7935 170.528 93.0474C171.86 94.6148 173.619 95.3926 175.532 95.3926C177.414 95.3926 179.218 94.6148 180.504 93.0474C181.897 91.6139 182.585 89.5906 182.585 87.432C182.585 85.3247 181.896 83.318 180.504 81.8316C166.06 65.5754 146.873 56.6025 126.432 56.6025C106.068 56.6025 86.8825 65.5754 72.4222 81.7988C69.746 84.7831 69.746 90.1292 72.4222 93.0474ZM91.1744 113.791C88.5317 110.769 88.5317 105.521 91.1744 102.498C100.606 91.6999 113.201 85.7568 126.528 85.7568C139.954 85.7568 152.527 91.6999 161.974 102.498C163.31 103.993 164.055 106.014 164.055 108.154C164.055 110.275 163.31 112.347 161.974 113.791C159.241 116.932 154.806 116.932 152.026 113.791C145.178 106.014 136.156 101.785 126.528 101.785C116.892 101.785 107.925 106.014 101.106 113.791C98.3426 116.932 93.9228 116.932 91.1744 113.791ZM109.44 134.014C106.821 131.036 106.821 125.79 109.44 122.753C114.048 117.541 120.106 114.664 126.549 114.664C133.047 114.664 139.136 117.541 143.721 122.753C145.073 124.267 145.771 126.273 145.771 128.395C145.771 130.528 145.073 132.517 143.721 134.014C140.988 137.204 136.494 137.204 133.807 134.014C131.864 131.856 129.314 130.621 126.55 130.621C123.878 130.621 121.314 131.856 119.377 134.014C118.057 135.537 116.303 136.391 114.442 136.391C112.545 136.391 110.767 135.537 109.44 134.014Z" fill="url(#paint0_linear)"/>
</g>
<defs>
<linearGradient id="paint0_linear" x1="35.5781" y1="2.24707" x2="275.063" y2="174.714" gradientUnits="userSpaceOnUse">
<stop stop-color="#BF2C6C"/>
<stop offset="1" stop-color="#4A2CBF"/>
</linearGradient>
<clipPath id="clip0">
<rect width="1095" height="256" fill="white"/>
</clipPath>
</defs>
</svg>
