<svg height="427" viewBox="0 0 1007 427" width="1007" xmlns="http://www.w3.org/2000/svg"><g fill="#f9f4f9" fill-rule="evenodd"><g transform="translate(231 244)"><g fill-opacity=".5"><path d="m6.46973816 32.6530612c-1.80105565 0-3.32918399.6105295-4.58533005 1.8315884-1.25614607 1.2210589-1.88440811 2.6862928-1.88440811 4.3964367v26.2573598c0 1.7529526.62807303 3.2371106 1.88440811 4.4583532 1.25614606 1.2210589 2.7842744 1.8317721 4.58533005 1.8317721 1.7997326 0 3.31859956-.6105294 4.55527784-1.8317721 1.2342211-1.2210589 1.8530328-2.7054006 1.8530328-4.4583532v-26.2573598c0-1.7103276-.6280731-3.1753778-1.8844081-4.3964367-1.2563351-1.2210589-2.76461762-1.8315884-4.52390254-1.8315884z"/><path d="m58.2524569 8.97154424 4.4483319-7.68090486c.2919936-.50850794.1881276-.89844637-.3125407-1.17263837-.5434588-.23643326-.9609965-.11662865-1.2528017.35094458l-4.5105384 7.74230693c-3.9689646-1.64250536-8.1667739-2.4652578-12.5934277-2.4652578-4.4275964 0-8.6257827.82292888-12.5932393 2.4652578l-4.5107269-7.74230693c-.2931247-.46757323-.7106624-.58631919-1.2528017-.35094458-.5017992.2754271-.6056653.66413043-.3125406 1.17263837l4.4485204 7.68090486c-4.5107269 2.15313066-8.1032479 5.15177476-10.7762433 9.00246086-2.6729954 3.8528035-4.0100587 8.0630798-4.0100587 12.6382398h57.9512196c0-4.5741013-1.3372518-8.7845541-4.0100587-12.6382398-2.6731839-3.8506861-6.2449694-6.8493302-10.7130942-9.00246086zm-25.7182501 11.17200066c-.4810637.4513405-1.0556258.6759521-1.7234976.6759521-.6691914 0-1.2320662-.2246116-1.6912634-.6759521-.4591973-.4492232-.6887959-.9849033-.6887959-1.6121572 0-.6251366.2295986-1.1618754.6887959-1.6121572.4591972-.4492232 1.0233915-.6738348 1.6912634-.6738348.6678718 0 1.2424339.2246116 1.7234976.6738348.4799328.4513405.7210302.9870206.7210302 1.6121572-.0013195.6261953-.2422284 1.162934-.7210302 1.6121572zm26.4068574 0c-.4601397.4513405-1.0243341.6759521-1.6910749.6759521-.6693799 0-1.2437534-.2246116-1.7238747-.6759521-.4808752-.4492232-.7208416-.9849033-.7208416-1.6121572 0-.6251366.2399664-1.1618754.7208416-1.6121572.4801213-.4492232 1.0544948-.6738348 1.7238747-.6738348.6678719 0 1.2307467.2246116 1.6910749.6738348.4595743.4513405.6887959.9870206.6887959 1.6121572 0 .6261953-.2294101 1.162934-.6887959 1.6121572z" fill-rule="nonzero"/><path d="m15.0243902 73.2068013c0 1.8690841.6729856 3.4512652 2.0191467 4.7496576 1.3473008 1.2983924 2.9876913 1.947497 4.9242106 1.947497h4.6719598l.0640124 13.8237479c0 1.7456023.6311971 3.2279351 1.8935911 4.4457162 1.2623941 1.2177811 2.7783687 1.82658 4.5452645 1.82658 1.8088743 0 3.3455532-.6087989 4.6081372-1.82658s1.893781-2.6999307 1.893781-4.4457162v-13.8224654h8.7117727v13.8224654c0 1.7456023.6310071 3.2279351 1.8935911 4.4457162 1.2625841 1.2177811 2.7979333 1.82658 4.6081373 1.82658 1.8088743 0 3.3455532-.6087989 4.6081372-1.82658s1.8935911-2.6999307 1.8935911-4.4457162v-13.8224654h4.7350224c1.8935911 0 3.5128974-.6492879 4.8615278-1.9476803 1.3459712-1.2983924 2.0193367-2.8805734 2.0193367-4.7494744v-40.5550225h-57.9512196z"/><path d="m81.5297861 32.6530612c-1.7596547 0-3.266958.6015268-4.5234222 1.8012732-1.2562751 1.2019512-1.8844127 2.6783925-1.8844127 4.4267519v26.2573598c0 1.7529526.6279486 3.2371106 1.8844127 4.4583532 1.2564642 1.2212427 2.7649017 1.8317721 4.5234222 1.8317721 1.8001066 0 3.329337-.6105294 4.5858012-1.8317721 1.2564642-1.2212426 1.8844127-2.7054006 1.8844127-4.4583532v-26.2573598c0-1.7485431-.6279485-3.2248007-1.8844127-4.4267519-1.2564642-1.1997464-2.7856946-1.8012732-4.5858012-1.8012732z"/></g><g transform="translate(336 10)"><path d="m154.146341 65.6717176 5.977763-15.5224057h17.260142l-8.1912-23.5466532 10.244565-26.6026587 29.342877 80h-21.639312l-5.014154-14.3282824z" fill-opacity=".5"/><path d="m134.126649 80 31.72701-80-21.03392.0001063-21.703108 51.6977931-15.433083-51.6976868h-16.1676907l-16.571024 51.6976868-11.6862723-23.5576165-10.5756342 33.124306 10.7374171 18.7354111h20.699968l14.9745019-46.3617498 14.2773682 46.3617498z" fill-opacity=".75"/><path d="m20.1313614 52.5373454h13.0631024c3.9570502 0 7.4806538-.4453198 10.5708106-1.3359593l3.3782936-10.4943502 9.4417979-29.3301456c-.7194245-1.1497653-1.5407602-2.23686364-2.4640071-3.2611535-4.8478022-5.41055334-11.9405671-8.1157368-21.2785105-8.1157368h-32.8428483v80h20.1313614zm17.2910164-34.1325453c1.8935631 1.9215912 2.8402367 4.4930379 2.8402367 7.7145579 0 3.2462297-.8326712 5.8208331-2.4979056 7.7238104-1.8255503 2.1144796-5.1870026 3.171665-10.0841411 3.171665h-7.5492064v-21.4925833h7.6046962c4.5640917 0 7.792865.96085 9.6863202 2.88255z" fill-opacity=".5" fill-rule="nonzero"/></g><path d="m240.616119 53.1868544c0-8.6519056 4.611052-16.0488768 11.156099-19.1607061-1.822027-2.3874362-4.264968-4.6320343-7.55276-6.9786597-4.25479-3.0404102-13.680473-3.3873027-19.859079-1.8058812-4.692483 1.1937181-8.6928 3.4995325-10.830374 3.6015597-1.933995.1020272-6.086996-2.4894634-10.830374-3.6015597-5.720554-1.3467589-11.960234-.5917577-16.245561 1.8058812-12.459001 6.9786597-14.45407 14.1103602-14.45407 28.8430863 0 16.9773241 6.13789 31.3733605 19.859078 41.4740521 3.012962 2.21399 8.428149 3.519938 12.642223 1.8058813 3.623696-1.4793942 5.557692-3.2852755 9.028704-3.6015598 5.069104-.4591223 7.430614 1.2447317 9.873555 2.7649368 2.219006 1.3773671 7.339004 2.4894637 9.985524.8468257 9.272998-5.7543334 16.571286-15.1612402 20.429098-26.0169331-7.613834-2.4486525-13.202063-10.4577868-13.202063-19.9769235zm-10.840553-38.760129c3.68477-5.79514434 3.694949-14.45725266 3.613518-14.42664451-1.526839.51013595-6.677374-.69378488-14.443892 5.407441-2.707593 2.13236825-6.036101 7.37656571-7.227035 10.81488201-.905924 2.611896-1.79149 9.0090008-1.811848 9.0192035-.091611.0102027 5.95467-.326487 9.028704-1.8058813 3.155466-1.5100024 8.458685-5.2544002 10.840553-9.0090007z" fill-opacity=".5" fill-rule="nonzero"/></g><text fill-opacity=".7" font-family="Muli-ExtraLight, Muli" font-size="120" font-weight="300"><tspan x="149" y="161">coming soon.</tspan></text></g></svg>